<svg xmlns="http://www.w3.org/2000/svg" id="__SVG_SPRITE_NODE__" aria-hidden="true" style="position: absolute; width: 0; height: 0" xmlns:xlink="http://www.w3.org/1999/xlink"><symbol id="icon_alipay" viewBox="0 0 40 40"><path fill="currentColor" d="M 35 25.42 l -9.65 -3.25 a 16.81 16.81 0 0 0 1.53 -3.28 a 15 15 0 0 0 0.91 -3.38 l -6.25 0 V 13.33 l 7.57 -0.06 v -1.5 H 21.54 V 8.33 h -3.7 v 3.44 H 10.78 v 1.51 l 7.06 -0.06 v 2.29 H 12.17 v 1.2 H 23.83 a 11.24 11.24 0 0 1 -0.58 2.18 c -0.44 1.2 -0.9 2.26 -0.9 2.26 S 16.87 19.23 14 19.23 S 7.6 20.39 7.26 23.75 s 1.63 5.18 4.41 5.85 a 11 11 0 0 0 7.58 -1.1 a 17.59 17.59 0 0 0 4.42 -3.57 l 11.25 5.46 A 5.55 5.55 0 0 1 29.44 35 H 10.56 A 5.55 5.55 0 0 1 5 29.46 V 10.56 A 5.55 5.55 0 0 1 10.54 5 h 18.9 A 5.55 5.55 0 0 1 35 10.54 Z M 20.94 23.54 S 17.43 28 13.29 28 s -5 -2.11 -5 -3.62 s 0.86 -3.16 4.38 -3.4 s 8.28 2.59 8.28 2.59 Z m 0 0"/></symbol><symbol id="icon_arrow" viewBox="0 0 8 12"><path class="st0" fill="currentColor" d="M 1.2 6.4 C 1 6.2 1 5.8 1.2 5.6 l 4.9 -4.9 c 0.2 -0.2 0.5 -0.2 0.7 0 C 7 0.9 7 1.2 6.8 1.4 L 2.2 6 l 4.6 4.6 c 0.2 0.2 0.2 0.5 0 0.7 c -0.2 0.2 -0.5 0.2 -0.7 0 L 1.2 6.4 C 1.2 6.4 1.2 6.4 1.2 6.4 Z"/></symbol><symbol id="icon_arrow1" viewBox="0 0 8 12"><path fill="currentColor" d="M 6.8 6.4 C 7 6.2 7 5.8 6.8 5.6 L 1.9 0.7 c -0.2 -0.2 -0.5 -0.2 -0.7 0 S 1 1.2 1.2 1.4 L 5.8 6 l -4.6 4.6 c -0.2 0.2 -0.2 0.5 0 0.7 s 0.5 0.2 0.7 0 L 6.8 6.4 C 6.8 6.4 6.8 6.4 6.8 6.4 Z"/></symbol><symbol id="icon_checked2" viewBox="0 0 18 18"><path fill="currentColor" fill-rule="evenodd" d="M 18 0 L 0 18 H 18 Z"/><path fill="#fff" d="M 12.07 15.22 a 0.57 0.57 0 0 1 -0.39 -0.2 L 9 12.3 a 0.69 0.69 0 0 1 0 -0.84 a 0.53 0.53 0 0 1 0.78 0 l 2.34 2.33 l 4.15 -4.86 a 0.58 0.58 0 0 1 0.78 0 h 0 a 0.55 0.55 0 0 1 0 0.84 l -4.54 5.32 a 0.59 0.59 0 0 1 -0.39 0.13 Z"/></symbol><symbol id="icon_circle" viewBox="0 0 22 22"><circle opacity="0.6" fill="currentColor" stroke="currentColor" stroke-miterlimit="10" stroke-width="2" cx="11" cy="11" r="10"/><circle fill="none" stroke="#fff" stroke-miterlimit="10" stroke-width="2" transform="rotate(-90 11 11)" cx="11" cy="11" r="10"/></symbol><symbol id="icon_close2" viewBox="0 0 29 29"><path d="M 16.14 14.5 L 23.67 7 a 1.16 1.16 0 0 0 0 -1.64 a 1.15 1.15 0 0 0 -1.63 0 L 14.5 12.87 L 7 5.33 A 1.15 1.15 0 1 0 5.33 7 l 7.54 7.54 L 5.33 22 a 1.16 1.16 0 0 0 0.82 2 A 1.12 1.12 0 0 0 7 23.67 l 7.54 -7.53 L 22 23.67 a 1.14 1.14 0 0 0 0.82 0.34 a 1.12 1.12 0 0 0 0.81 -0.34 a 1.15 1.15 0 0 0 0 -1.63 Z"/></symbol><symbol id="icon_elevator" viewBox="0 0 20 20"><style>#icon_elevator .icon_elevator{fill:#191919}</style><path class="icon_elevator" d="M 2 5 h 16 c 0.6 0 1 -0.4 1 -1 s -0.4 -1 -1 -1 H 2 C 1.4 3 1 3.4 1 4 S 1.4 5 2 5 Z"/><path class="icon_elevator" d="M 18 9 H 2 c -0.6 0 -1 0.4 -1 1 s 0.4 1 1 1 h 16 c 0.6 0 1 -0.4 1 -1 S 18.6 9 18 9 Z"/><path class="icon_elevator" d="M 18 15 H 2 c -0.6 0 -1 0.4 -1 1 s 0.4 1 1 1 h 16 c 0.6 0 1 -0.4 1 -1 S 18.6 15 18 15 Z"/></symbol><symbol id="icon_form" viewBox="0 0 16 16"><path fill="currentColor" d="M 14 0 H 12 V 1 a 1 1 0 0 1 -2 0 V 0 H 6 V 1 A 1 1 0 0 1 4 1 V 0 H 2 A 2 2 0 0 0 0 2 V 14 a 2 2 0 0 0 2 2 H 14 a 2 2 0 0 0 2 -2 V 2 A 2 2 0 0 0 14 0 Z M 9 12 H 4 a 1 1 0 0 1 0 -2 H 9 a 1 1 0 0 1 0 2 Z m 3 -5 H 4 A 1 1 0 0 1 4 5 h 8 a 1 1 0 0 1 0 2 Z"/></symbol><symbol id="icon_ipv6" viewBox="0 0 41 21"><path fill="currentColor" d="M 30.5 1 h -20 a 9.5 9.5 0 0 0 0 19 h 20 a 9.5 9.5 0 0 0 0 -19 Z m 0 18 h -20 a 8.5 8.5 0 0 1 0 -17 h 20 a 8.5 8.5 0 0 1 0 17 Z"/><path fill="currentColor" d="M 9.48 6 a 0.5 0.5 0 0 0 -0.5 0.5 v 8 a 0.5 0.5 0 0 0 1 0 v -8 A 0.5 0.5 0 0 0 9.48 6 Z"/><path fill="currentColor" d="M 25.19 8.05 a 0.5 0.5 0 0 0 -0.67 0.24 l -2.29 5 l -2.29 -5 a 0.49 0.49 0 0 0 -0.66 -0.24 a 0.52 0.52 0 0 0 -0.25 0.67 l 2.73 5.93 s 0 0 0 0 v 0 h 0 a 0.71 0.71 0 0 0 0.1 0.14 l 0.05 0 A 0.17 0.17 0 0 0 22 15 h 0 l 0.08 0 l 0.1 0 l 0.1 0 l 0.08 0 h 0 s 0.05 0 0.08 -0.06 l 0 0 a 0.45 0.45 0 0 0 0.1 -0.14 h 0 v 0 l 0 0 l 2.72 -5.93 A 0.51 0.51 0 0 0 25.19 8.05 Z"/><path fill="currentColor" d="M 15.62 6 H 12.44 a 0.47 0.47 0 0 0 -0.46 0.46 v 8 a 0.5 0.5 0 0 0 1 0 V 11 h 2.64 A 2.36 2.36 0 0 0 18 8.64 V 8.36 A 2.36 2.36 0 0 0 15.62 6 Z M 17 8.64 A 1.36 1.36 0 0 1 15.62 10 H 13 V 7 h 2.64 A 1.36 1.36 0 0 1 17 8.36 Z"/><path fill="currentColor" d="M 30 9.33 a 3.36 3.36 0 0 0 -2.25 0.86 V 9.33 A 2.29 2.29 0 0 1 29.92 7 a 2.15 2.15 0 0 1 1.87 1.14 a 0.52 0.52 0 0 0 0.68 0.2 a 0.47 0.47 0 0 0 0.2 -0.65 A 3.18 3.18 0 0 0 29.92 6 a 3.26 3.26 0 0 0 -3.19 3.33 v 3.08 a 3.25 3.25 0 0 0 6.5 0 A 3.17 3.17 0 0 0 30 9.33 Z m 0 5.22 a 2.14 2.14 0 1 1 2.25 -2.14 A 2.2 2.2 0 0 1 30 14.55 Z"/></symbol><symbol id="icon_logo" viewBox="0 0 16 16"><path d="M 6.95 2.53 a 15.38 15.38 0 0 0 -6.7 9.6 a 10.29 10.29 0 0 1 3.08 3.2 A 15.53 15.53 0 0 1 6.95 2.53 Z"/><path d="M 7.24 5 a 10.27 10.27 0 0 1 3.43 -3.5 A 10.11 10.11 0 0 1 15.75 0 c -0.15 0.5 -0.29 0.93 -0.66 2.58 A 15.9 15.9 0 0 0 7.24 5 Z"/><path d="M 5.37 10.5 A 15.71 15.71 0 0 0 5.55 16 a 26 26 0 0 1 10.18 -0.74 a 26.14 26.14 0 0 1 -0.95 -10.7 A 15.49 15.49 0 0 0 8 6.63 A 5.32 5.32 0 0 0 5.37 10.5 Z"/></symbol><symbol id="icon_more" viewBox="0 0 16 16"><path fill="currentColor" d="M 7.5 9.79 L 3.85 6.15 a 0.48 0.48 0 0 0 -0.7 0 a 0.48 0.48 0 0 0 0 0.7 l 4 4 a 0.48 0.48 0 0 0 0.7 0 l 4 -4 a 0.5 0.5 0 1 0 -0.7 -0.7 Z"/></symbol><symbol id="icon_music" viewBox="0 0 40 40"><rect opacity="0.3" width="40" height="40" rx="20"/><rect opacity="0.4" x="5" y="5" width="30" height="30" rx="15"/><path fill="#fff" d="M 25.68 14 l -4.29 -2.72 a 0.71 0.71 0 0 0 -1 0.17 a 0.69 0.69 0 0 0 -0.11 0.54 V 23.24 a 4.29 4.29 0 0 0 -3 -0.44 c -2.1 0.4 -3.55 2.06 -3.24 3.72 s 2.29 2.66 4.39 2.26 s 3.37 -1.87 3.28 -3.41 h 0 V 13.12 l 3.18 2 A 0.7 0.7 0 0 0 25.7 14 h 0 Z"/></symbol><symbol id="icon_next" viewBox="0 0 16 16"><path fill="currentColor" d="M 10.85 8.15 l -4 -4 a 0.48 0.48 0 0 0 -0.7 0 a 0.48 0.48 0 0 0 0 0.7 L 9.79 8.5 L 6.15 12.15 a 0.5 0.5 0 1 0 0.7 0.7 l 4 -4 a 0.48 0.48 0 0 0 0 -0.7 Z"/></symbol><symbol id="icon_online_pay" viewBox="0 0 17 17"><path fill="currentColor" d="M 17 8.5 A 8.5 8.5 0 1 1 8.5 0 A 8.49 8.49 0 0 1 17 8.5 Z"/><path fill="currentColor" stroke="#fff" stroke-linecap="round" stroke-linejoin="round" d="M 5.5 8.5 h 6 m -6 2 h 6 m -3 2 V 7 m -3 -2.5 L 8.5 7 m 0 0 l 3 -2.5"/></symbol><symbol id="icon_phone" viewBox="0 0 24 24"><path d="M 17.62 14 a 2.39 2.39 0 0 0 -0.65 -0.23 a 2.7 2.7 0 0 0 -2.51 0.84 a 0.9 0.9 0 0 1 -0.78 0.3 l -0.36 -0.06 A 5.48 5.48 0 0 1 9 8.94 a 0.93 0.93 0 0 1 0.62 -0.79 a 2.8 2.8 0 0 0 1.76 -2 a 2.61 2.61 0 0 0 -0.07 -1.47 A 2.48 2.48 0 0 0 9.42 3.06 A 2.75 2.75 0 0 0 6.28 5 l 0 0.14 a 1.87 1.87 0 0 0 -0.07 0.4 a 11.46 11.46 0 0 0 9 13.3 l 0.41 0.07 l 0.19 0.05 a 2.47 2.47 0 0 0 0.54 0.05 a 2.75 2.75 0 0 0 2.63 -2.13 A 2.54 2.54 0 0 0 17.62 14"/></symbol><symbol id="icon_play" viewBox="0 0 40 40"><path d="M 40 20 A 20 20 0 1 1 20 0 A 20 20 0 0 1 40 20 Z"/><g data-name="&lt;编组&gt;"><path fill="#fff" d="M 16.15 28 a 1.1 1.1 0 0 1 -0.58 -0.16 a 1.14 1.14 0 0 1 -0.57 -1 V 13.17 a 1.14 1.14 0 0 1 0.57 -1 a 1.13 1.13 0 0 1 1.15 0 L 27 19 a 1.18 1.18 0 0 1 0 2 L 16.72 27.84 A 1.1 1.1 0 0 1 16.15 28 Z" data-name="&lt;复合路径&gt;"/></g></symbol><symbol id="icon_prev" viewBox="0 0 16 16"><path fill="currentColor" d="M 7.21 8.5 l 3.64 -3.65 a 0.48 0.48 0 0 0 0 -0.7 a 0.48 0.48 0 0 0 -0.7 0 l -4 4 a 0.48 0.48 0 0 0 0 0.7 l 4 4 a 0.5 0.5 0 1 0 0.7 -0.7 Z"/></symbol><symbol id="icon_site_logo_no_color" viewBox="0 0 35.07 35"><path fill="currentColor" d="M 14.66 5.53 A 33.58 33.58 0 0 0 0 26.53 a 22.3 22.3 0 0 1 6.74 7 A 34 34 0 0 1 14.66 5.53 Z"/><path fill="currentColor" d="M 15.31 11 A 34.94 34.94 0 0 1 32.48 5.63 Q 33.07 2.78 33.92 0 A 22.06 22.06 0 0 0 22.81 3.3 A 22.38 22.38 0 0 0 15.31 11 Z"/><path fill="currentColor" d="M 31.78 10 a 33.87 33.87 0 0 0 -14.85 4.53 A 11.66 11.66 0 0 0 11.2 23 a 34.33 34.33 0 0 0 0.4 12 a 57.08 57.08 0 0 1 22.26 -1.62 A 57.25 57.25 0 0 1 31.78 10 Z"/></symbol><symbol id="icon_suspend" viewBox="0 0 40 40"><path d="M 40 20 A 20 20 0 1 1 20 0 A 20 20 0 0 1 40 20 Z"/><path fill="#fff" d="M 15.5 28 h 0 A 1.5 1.5 0 0 1 14 26.5 v -13 A 1.5 1.5 0 0 1 15.5 12 h 0 A 1.5 1.5 0 0 1 17 13.5 v 13 A 1.5 1.5 0 0 1 15.5 28 Z M 26 26.5 v -13 A 1.5 1.5 0 0 0 24.5 12 h 0 A 1.5 1.5 0 0 0 23 13.5 v 13 A 1.5 1.5 0 0 0 24.5 28 h 0 A 1.5 1.5 0 0 0 26 26.5 Z"/></symbol><symbol id="icon_top0" viewBox="0 0 16 16"><path fill="currentColor" d="M 8.34 16 A 6.06 6.06 0 0 1 2 9.78 A 9.86 9.86 0 0 1 3.18 5.71 a 0.5 0.5 0 0 1 0.49 -0.25 a 0.49 0.49 0 0 1 0.41 0.37 a 7.83 7.83 0 0 0 0.71 1.81 c 0.27 0.43 0.43 0.15 0.73 0.36 a 6.85 6.85 0 0 1 0 -3.12 A 6 6 0 0 1 9.36 0 a 0.48 0.48 0 0 1 0.47 0.11 A 0.52 0.52 0 0 1 10 0.59 a 9.54 9.54 0 0 0 0.55 5.07 c 0.1 0.21 0.23 0.46 0.37 0.71 a 7.8 7.8 0 0 1 0.21 -1 a 2.93 2.93 0 0 1 1.44 -1.86 a 0.47 0.47 0 0 1 0.51 0.06 a 0.51 0.51 0 0 1 0.18 0.49 a 3.73 3.73 0 0 0 0.64 2.29 a 5.76 5.76 0 0 1 0.91 3.47 A 6.13 6.13 0 0 1 8.34 16 Z" data-name="图层 2"/></symbol><symbol id="icon_top1" viewBox="0 0 16 16"><path fill="currentColor" d="M 8 0 A 8 8 0 1 1 0 8 A 8 8 0 0 1 8 0 Z"/><path fill="#fff" d="M 12.35 8.11 L 8.62 6.46 l 1.06 -2.6 c 0.06 -0.14 0 -0.29 -0.2 -0.37 a 0.64 0.64 0 0 0 -0.57 0 l -5.3 3 a 0.32 0.32 0 0 0 -0.18 0.29 a 0.37 0.37 0 0 0 0.24 0.27 L 6.9 8.4 L 5.66 12.16 a 0.27 0.27 0 0 0 0.1 0.29 a 0.55 0.55 0 0 0 0.39 0.12 a 0.67 0.67 0 0 0 0.34 -0.09 l 5.93 -3.84 a 0.29 0.29 0 0 0 -0.07 -0.53 Z"/></symbol><symbol id="icon_top3" viewBox="0 0 36 20"><path fill="currentColor" fill-rule="evenodd" d="M 4.51 2 H 33 a 2 2 0 0 1 2 2.41 l -2.52 12 A 2 2 0 0 1 30.49 18 H 2 a 2 2 0 0 1 -2 -2.41 l 2.52 -12 A 2 2 0 0 1 4.51 2 Z"/><path fill="#fff" d="M 6.68 6 H 8.31 l 1.41 4.24 L 10.15 12 h 0 c 0.09 -0.83 0.2 -1.88 0.39 -2.79 L 11.27 6 h 1.5 l -1.69 8 H 9.47 L 8.07 9.72 L 7.63 8 H 7.57 c -0.1 0.86 -0.2 1.86 -0.39 2.78 L 6.5 14 H 5 Z m 8.06 0 h 4.89 l -0.28 1.32 h -3.3 l -0.39 1.84 h 2.8 l -0.28 1.34 h -2.8 l -0.45 2.13 h 3.41 L 18.05 14 h -5 Z m 5.83 0 H 22.2 L 22 9.9 c -0.06 0.84 -0.11 1.69 -0.18 2.54 h 0.05 c 0.34 -0.85 0.69 -1.71 1 -2.54 L 24.67 6 H 26 l 0.1 3.88 c 0 0.82 0 1.68 0 2.54 h 0.06 L 27 9.9 L 28.49 6 H 30 l -3.17 8 h -2 L 24.81 10 c 0 -0.62 0 -1.23 0 -1.84 h 0 c -0.23 0.61 -0.47 1.22 -0.73 1.84 L 22.37 14 H 20.42 Z"/></symbol><symbol id="icon_top4" viewBox="0 0 28 16"><path fill="none" stroke="currentColor" stroke-linecap="round" stroke-linejoin="round" d="M 26.6 15.5 H 1.4 a 0.9 0.9 0 0 1 -0.9 -0.9 V 1.4 A 0.9 0.9 0 0 1 1.4 0.5 H 26.6 a 0.9 0.9 0 0 1 0.9 0.9 V 14.6 A 0.9 0.9 0 0 1 26.6 15.5 Z"/><text font-family="MicrosoftYaHei,Microsoft YaHei" font-size="11px" fill="currentColor" transform="translate(2.9 12.2)">热门</text></symbol><symbol id="icon_top5" viewBox="0 0 28 16"><path fill="currentColor" fill-rule="evenodd" d="M 24.24 16 H 2.76 A 1.76 1.76 0 0 1 1 14.24 V 2.76 A 1.76 1.76 0 0 1 2.76 1 H 24.24 A 1.76 1.76 0 0 1 26 2.76 V 14.24 A 1.76 1.76 0 0 1 24.24 16 Z"/><path fill="#fff" fill-rule="evenodd" d="M 9 5 h 1 v 7 H 9 V 9 H 6 v 3 H 5 V 5 H 6 V 8 H 9 Z m 9 0 V 6 h 2 v 6 h 1 V 6 h 2 V 5 Z M 12 7 h 1 V 6 H 12 Z m 1 -2 V 6 h 2 V 5 Z m 2 1 V 7 h 1 V 6 Z m 0 5 h 1 V 10 H 15 Z m 1 -4 v 3 h 1 V 7 Z m -3 5 h 2 V 11 H 13 Z m -1 -2 v 1 h 1 V 10 Z m -1 0 h 1 V 7 H 11 Z"/></symbol><symbol id="icon_volume" viewBox="0 0 20 20"><path fill="none" stroke="currentColor" stroke-linecap="round" stroke-linejoin="round" stroke-width="2" d="M 6.3 13.36 H 2.51 A 0.51 0.51 0 0 1 2 12.85 v -6 a 0.51 0.51 0 0 1 0.51 -0.51 H 6.3 a 0.56 0.56 0 0 0 0.35 -0.13 l 4.5 -4.1 a 0.51 0.51 0 0 1 0.85 0.38 v 14.7 a 0.51 0.51 0 0 1 -0.85 0.38 l -4.5 -4.1 A 0.56 0.56 0 0 0 6.3 13.36 Z m 8.7 1 a 6.6 6.6 0 0 0 2 -4.5 a 6.6 6.6 0 0 0 -2 -4.5"/></symbol><symbol id="icon_wechat_pay" viewBox="0 0 40 40"><path fill="currentColor" d="M 34.33 13 A 12.41 12.41 0 0 1 36 19.23 c 0 7.71 -7.16 14 -16 14 a 18 18 0 0 1 -5.91 -1 c -1.17 0.77 -3.12 2 -3.89 2.39 c -1.13 0.51 -0.8 -0.6 -0.8 -0.6 l 0.67 -3.82 A 13.34 13.34 0 0 1 4 19.23 c 0 -7.7 7.16 -13.94 16 -13.94 a 16.75 16.75 0 0 1 13.09 5.93 L 17.4 18.44 a 3 3 0 0 1 -2.4 -0.2 c -1.12 -0.68 -2.6 -1.8 -2.6 -1.8 s -1.72 -1.45 -0.8 1.2 L 14 23.22 s 0.29 1.66 2.2 0.6 C 17.7 23 29.33 16 34.33 13 Z"/></symbol><symbol id="lottery_icon_close" viewBox="0 0 36 36"><path fill="none" stroke="#fff" stroke-linecap="round" stroke-linejoin="round" stroke-width="2" d="M 30 6 h 0 a 17 17 0 0 1 0 24 h 0 A 17 17 0 0 1 6 30 H 6 A 17 17 0 0 1 6 6 H 6 A 17 17 0 0 1 30 6 Z M 24.47 24.47 L 11.53 11.53 m 0 12.94 L 24.47 11.53"/></symbol></svg>